:SAMPLES-PER-SECOND 30
:FULLY-SPECIFIED
:DEGREES
1359
root  -37.494 38.5057 23.109 176.405 -14.1065 175.505
RightUpLeg  -13.1845 -14.2986 -7.56137
RightLeg  34.8366 1.19496 0.631621
RightFoot  -14.4648 -0.180649 -3.02954
RightToes  1.33877e-009 0 -3.6325e-017
Spine  18.5863 -4.72156 8.82132
Spine1  9.6067 -2.74271 -3.56364
HEad  -23.5344 48.6603 -29.8331
LeftShoulder1  0.269564 2.60039 -23.5194
LeftArm  -4.85017 -20.4152 -45.7826
LeftForeArm  21.2726 -73.819 -42.3903
LeftHand  -0.0692216 -0.287772 1.45933
RightShoulder  0.00853851 -3.44728 19.8634
RightArm  -21.2329 -2.71794 22.3133
RightForeArm  89.8107 74.7358 130.094
RightHand  -0.308752 2.9049 -4.54692
LeftUpLeg  -22.1982 14.1223 3.21128
LeftLeg  33.3683 3.05696 2.51031
LeftFoot  -11.5368 0.0641581 -2.9147
LeftToes  -1.45701e-009 4.75788e-011 -4.21586e-011
1360
root  -37.8767 38.7176 23.1511 177.59 -15.2123 175.129
RightUpLeg  -13.1566 -15.0854 -8.53454
RightLeg  33.0347 1.1195 0.529652
RightFoot  -13.6708 -0.130763 -1.88514
RightToes  1.33877e-009 0 -3.6325e-017
Spine  19.1019 -4.50279 7.5053
Spine1  8.91853 -3.03742 -2.47828
HEad  -25.472 48.6786 -31.518
LeftShoulder1  0.317089 2.44947 -23.802
LeftArm  -3.53407 -21.7181 -46.3829
LeftForeArm  19.9051 -73.224 -40.3589
LeftHand  -0.057237 -0.21755 1.22121
RightShoulder  -0.0215773 -3.55984 19.9356
RightArm  -21.2463 -6.24561 21.3175
RightForeArm  93.3233 73.6534 134.455
RightHand  -0.373255 2.99332 -5.39301
LeftUpLeg  -23.2645 15.1294 3.85271
LeftLeg  31.077 3.86848 2.86446
LeftFoot  -11.5128 0.0640853 -3.36498
LeftToes  -1.45701e-009 4.75788e-011 -4.21586e-011
1361
root  -38.2998 38.9177 23.1835 178.346 -16.5284 175.01
RightUpLeg  -12.4651 -16.2908 -9.46232
RightLeg  31.0353 1.22907 0.55079
RightFoot  -12.7517 -0.0991754 -1.04863
RightToes  1.33877e-009 0 -3.6325e-017
Spine  19.9363 -4.52111 6.94182
Spine1  8.12133 -3.26295 -1.97398
HEad  -26.6613 48.4607 -32.4589
LeftShoulder1  0.395776 2.17734 -23.5302
LeftArm  -2.22041 -22.4325 -46.6435
LeftForeArm  19.4133 -72.9733 -39.5577
LeftHand  -0.0568872 -0.329601 1.20046
RightShoulder  -0.0934071 -3.82637 20.3606
RightArm  -20.5947 -9.58632 20.4865
RightForeArm  94.9219 72.7887 137.25
RightHand  -0.493677 3.96373 -6.37155
LeftUpLeg  -24.0679 16.7768 4.61752
LeftLeg  28.7705 3.69937 2.54017
LeftFoot  -11.1835 0.0715836 -3.60456
LeftToes  -1.45701e-009 4.75788e-011 -4.21586e-011
1362
root  -38.7615 39.0416 23.1909 179.035 -17.9019 174.876
RightUpLeg  -11.8758 -17.3256 -10.4524
RightLeg  29.64 1.17426 0.483427
RightFoot  -12.29 -0.083207 -0.0308209
RightToes  1.33877e-009 0 -3.6325e-017
Spine  20.3485 -4.60479 6.42867
Spine1  8.0508 -3.47896 -1.81305
HEad  -27.8612 48.0667 -32.9823
LeftShoulder1  0.351887 2.3321 -23.7302
LeftArm  -0.453865 -23.5146 -45.9081
LeftForeArm  18.4688 -72.73 -38.9213
LeftHand  -0.081095 -0.206216 1.71939
RightShoulder  -0.110602 -3.88856 20.4499
RightArm  -20.2913 -12.9621 20.6022
RightForeArm  97.5006 71.751 140.264
RightHand  -0.621642 4.67964 -7.45629
LeftUpLeg  -24.9868 18.8678 5.0068
LeftLeg  26.6699 3.17149 2.06997
LeftFoot  -10.4969 0.0891602 -3.50257
LeftToes  -1.45701e-009 4.75788e-011 -4.21586e-011
1363
root  -39.2497 39.0704 23.1779 179.47 -19.4326 174.839
RightUpLeg  -11.3025 -17.5468 -11.3646
RightLeg  29.0181 0.386868 -0.00719754
RightFoot  -12.2776 -0.0759581 0.868362
RightToes  1.33877e-009 0 -3.6325e-017
Spine  21.0059 -4.70471 5.92102
Spine1  7.77997 -3.722 -1.55232
HEad  -29.2828 47.7962 -33.6022
LeftShoulder1  0.348312 2.3345 -23.4786
LeftArm  0.607726 -24.056 -45.1864
LeftForeArm  16.9454 -72.2549 -37.6763
LeftHand  -0.0673395 -0.224604 1.43429
RightShoulder  -0.0936075 -3.82759 20.1586
RightArm  -20.0928 -16.6872 21.9993
RightForeArm  102.547 70.4153 143.802
RightHand  -0.5625 4.48907 -6.88397
LeftUpLeg  -25.8385 20.9877 5.30171
LeftLeg  24.8661 2.63282 1.66306
LeftFoot  -9.96568 0.107117 -3.97737
LeftToes  -1.45701e-009 4.75788e-011 -4.21586e-011
1364
root  -39.7812 39.0379 23.1219 -179.995 -21.4028 174.798
RightUpLeg  -10.7278 -18.7715 -12.4789
RightLeg  28.8517 0.0887948 -0.184584
RightFoot  -12.6647 -0.0664052 1.65438
RightToes  1.33877e-009 0 -3.6325e-017
Spine  21.0081 -4.87784 5.60001
Spine1  8.28389 -3.95031 -1.63744
HEad  -31.0754 46.9921 -33.7768
LeftShoulder1  0.36285 2.28789 -23.5392
LeftArm  1.32337 -24.3844 -44.1755
LeftForeArm  15.8703 -71.8578 -36.6742
LeftHand  -0.0432486 -0.536713 0.902676
RightShoulder  -0.176282 -4.11716 21.1887
RightArm  -20.0971 -19.3194 22.6514
RightForeArm  106.998 69.0327 146.853
RightHand  -0.538168 4.10947 -6.82548
LeftUpLeg  -26.6781 21.9681 5.15528
LeftLeg  22.7473 3.10935 1.7574
LeftFoot  -9.08217 0.129618 -3.80537
LeftToes  -1.45701e-009 4.75788e-011 -4.21586e-011
1365
root  -40.3733 38.9219 23.0112 -179.7 -23.3089 174.842
RightUpLeg  -9.96067 -20.6385 -13.7985
RightLeg  29.2585 0.44048 0.0303233
RightFoot  -13.4566 -0.0446421 2.51713
RightToes  1.33877e-009 0 -3.6325e-017
Spine  21.2606 -4.83474 5.24907
Spine1  8.30727 -4.01656 -1.39527
HEad  -30.4412 45.8249 -33.131
LeftShoulder1  0.35689 2.32925 -24.1033
LeftArm  1.98703 -24.2039 -42.8991
LeftForeArm  14.4763 -71.5394 -36.0207
LeftHand  -0.0711334 -0.573522 1.44843
RightShoulder  -0.189065 -4.14791 21.7344
RightArm  -20.1601 -22.3698 24.299
RightForeArm  109.622 67.6966 149.253
RightHand  -0.650392 4.87288 -7.64537
LeftUpLeg  -26.9973 23.2156 4.65792
LeftLeg  20.1657 3.67486 1.83149
LeftFoot  -8.24469 0.152323 -3.80673
LeftToes  -1.45701e-009 4.75788e-011 -4.21586e-011
1366
root  -41.0659 38.7176 22.8269 -179.577 -25.1029 175.41
RightUpLeg  -9.24892 -22.2729 -14.7437
RightLeg  30.1171 0.690179 0.192863
RightFoot  -14.3815 -0.00909486 3.32993
RightToes  1.33877e-009 0 -3.6325e-017
Spine  21.1624 -4.84451 5.93244
Spine1  8.25724 -3.83501 -1.7149
HEad  -30.321 44.1609 -33.5298
LeftShoulder1  0.382267 2.25668 -24.3661
LeftArm  2.15539 -23.395 -41.4067
LeftForeArm  14.1643 -71.4485 -35.8244
LeftHand  -0.0422693 -0.274852 0.906128
RightShoulder  -0.27302 -4.39367 23.4534
RightArm  -20.2116 -24.2325 25.4817
RightForeArm  112.998 66.6874 151.011
RightHand  -0.602842 4.48257 -7.36686
LeftUpLeg  -27.6333 26.4269 3.73696
LeftLeg  18.1583 3.58493 1.62786
LeftFoot  -7.65427 0.167282 -3.76862
LeftToes  -1.45701e-009 4.75788e-011 -4.21586e-011
1367
root  -41.7945 38.4799 22.5777 179.955 -26.782 176.591
RightUpLeg  -7.97201 -23.5254 -15.2659
RightLeg  30.8291 0.784051 0.262746
RightFoot  -15.2683 0.0428431 4.26452
RightToes  1.33877e-009 0 -3.6325e-017
Spine  21.0998 -4.55428 6.23851
Spine1  8.484 -3.65354 -0.983069
HEad  -30.3827 43.1147 -33.322
LeftShoulder1  0.385236 2.2822 -25.3472
LeftArm  1.91336 -21.9602 -39.672
LeftForeArm  14.5702 -71.6444 -36.304
LeftHand  -0.0633425 -0.259411 1.34049
RightShoulder  -0.336539 -4.57876 24.2682
RightArm  -20.2364 -24.7894 27.4718
RightForeArm  115.061 66.5388 151.399
RightHand  -0.597438 4.80671 -7.0884
LeftUpLeg  -27.7402 29.2318 3.47627
LeftLeg  16.7314 5.03177 1.78531
LeftFoot  -6.98027 0.187068 -3.78425
LeftToes  -1.45701e-009 4.75788e-011 -4.21586e-011
1368
root  -42.5999 38.2242 22.2513 179.353 -28.6104 178.225
RightUpLeg  -6.43051 -24.3411 -15.3936
RightLeg  31.2781 0.425984 0.0377026
RightFoot  -16.0383 0.117581 5.51635
RightToes  1.33877e-009 0 -3.6325e-017
Spine  20.5741 -4.45123 6.58487
Spine1  8.90514 -3.61038 -0.537595
HEad  -30.2156 42.3848 -32.417
LeftShoulder1  0.273831 2.65681 -26.0778
LeftArm  1.19562 -20.1 -37.8087
LeftForeArm  15.0429 -71.8289 -36.7561
LeftHand  -0.0523483 -0.238122 1.11253
RightShoulder  -0.318922 -4.49609 24.9939
RightArm  -19.6159 -23.9759 29.7095
RightForeArm  116.425 67.2963 150.493
RightHand  -0.572247 4.21156 -7.18622
LeftUpLeg  -27.3653 30.0888 4.14033
LeftLeg  15.8689 8.73789 2.24907
LeftFoot  -5.19708 0.22164 -3.52045
LeftToes  -1.45701e-009 4.75788e-011 -4.21586e-011
1369
root  -43.4393 37.9862 21.8824 178.577 -30.437 179.749
RightUpLeg  -4.38563 -24.4641 -15.6564
RightLeg  31.2926 -0.330357 -0.458337
RightFoot  -16.6805 0.217374 7.07963
RightToes  1.33877e-009 0 -3.6325e-017
Spine  20.43 -4.2584 6.61108
Spine1  9.09484 -3.30178 -0.786474
HEad  -29.8941 41.2573 -31.1237
LeftShoulder1  0.201703 2.88553 -26.5363
LeftArm  0.556628 -17.9952 -36.0168
LeftForeArm  15.6283 -72.1264 -37.5421
LeftHand  -0.0717485 -0.241401 1.50731
RightShoulder  -0.360857 -4.59265 26.1043
RightArm  -18.0737 -22.2141 30.6616
RightForeArm  116.81 68.5825 148.643
RightHand  -0.550899 4.26056 -6.89764
LeftUpLeg  -27.3531 30.3428 4.59093
LeftLeg  16.3596 11.4439 2.90294
LeftFoot  0.400329 0.202478 -2.15999
LeftToes  -1.45701e-009 4.75788e-011 -4.21586e-011
1370
root  -44.3423 37.6729 21.5192 178.282 -33.0699 -179.387
RightUpLeg  -2.53137 -25.1051 -16.7335
RightLeg  32.0367 -1.30527 -1.123
RightFoot  -17.3484 0.34278 8.75406
RightToes  1.33877e-009 0 -3.6325e-017
Spine  20.3283 -3.52638 5.29233
Spine1  8.79153 -3.29366 1.14142
HEad  -29.8032 39.4143 -29.6786
LeftShoulder1  0.116804 3.16084 -27.7935
LeftArm  -0.326538 -16.988 -34.3518
LeftForeArm  16.1176 -72.0672 -37.2609
LeftHand  -0.0328579 -0.0612148 0.714472
RightShoulder  -0.359835 -4.58467 26.2517
RightArm  -16.6189 -20.6733 31.0804
RightForeArm  116.3 69.5025 147.074
RightHand  -0.512263 3.56921 -6.88311
LeftUpLeg  -29.7988 31.213 2.89536
LeftLeg  18.9253 8.81917 3.31063
LeftFoot  8.56916 -0.146379 0.595261
LeftToes  -1.45701e-009 4.75788e-011 -4.21586e-011
1371
root  -45.2387 37.3758 21.0969 177.678 -36.735 -179.228
RightUpLeg  0.507351 -25.3435 -18.6386
RightLeg  32.9182 -3.02555 -2.35261
RightFoot  -17.8139 0.475779 10.5135
RightToes  1.33877e-009 0 -3.6325e-017
Spine  21.2207 -2.83962 4.02648
Spine1  8.09242 -3.11173 2.4328
HEad  -29.6159 36.0042 -27.4689
LeftShoulder1  0.125106 3.13564 -27.7723
LeftArm  -0.624113 -17.4216 -33.2552
LeftForeArm  14.0124 -71.4593 -35.8881
LeftHand  -0.0511488 -0.188839 1.09496
RightShoulder  -0.29433 -4.37859 26.3723
RightArm  -15.8527 -20.3326 32.4869
RightForeArm  114.446 70.2865 145.457
RightHand  -0.647291 5.06172 -7.47269
LeftUpLeg  -31.9444 29.1535 1.73237
LeftLeg  24.493 5.66463 3.21961
LeftFoot  8.48104 -0.8226 4.45122
LeftToes  -1.45701e-009 4.75788e-011 -4.21586e-011
